<?xml version="1.0" standalone="no"?>
<!DOCTYPE svg PUBLIC "-//W3C//DTD SVG 20010904//EN"
 "http://www.w3.org/TR/2001/REC-SVG-20010904/DTD/svg10.dtd">
<svg version="1.0" xmlns="http://www.w3.org/2000/svg"
 width="2971.000000pt" height="503.000000pt" viewBox="0 0 2971.000000 503.000000"
 preserveAspectRatio="xMidYMid meet">

<g transform="translate(0.000000,503.000000) scale(0.100000,-0.100000)"
fill="#000000" stroke="none">
<path d="M1165 5024 c-16 -2 -82 -11 -145 -20 -164 -23 -351 -66 -456 -106
-276 -103 -484 -302 -539 -515 -19 -73 -19 -218 0 -308 18 -85 53 -193 66
-200 5 -3 41 16 81 43 325 219 674 358 983 392 61 6 317 10 660 10 617 -1 618
-1 717 61 103 66 186 198 228 363 30 118 29 122 -27 134 -237 51 -564 100
-853 128 -155 15 -649 27 -715 18z"/>
<path d="M3161 4969 c-98 -8 -161 -17 -161 -24 0 -2 175 -720 390 -1595 227
-925 404 -1628 423 -1680 109 -290 318 -480 603 -546 60 -14 234 -35 242 -29
4 4 -214 1349 -383 2365 -98 585 -153 889 -170 940 -142 415 -461 608 -944
569z"/>
<path d="M5595 4950 c-90 -12 -183 -38 -252 -71 -121 -58 -247 -238 -316 -454
-23 -71 -232 -1178 -366 -1940 -83 -469 -84 -357 11 -910 l83 -480 40 3 c57 4
137 46 179 92 46 51 88 134 120 240 56 185 262 1060 483 2052 48 219 90 398
94 398 3 0 90 -467 194 -1037 199 -1099 209 -1144 289 -1286 147 -263 387
-413 694 -434 l93 -6 -6 34 c-3 19 -57 358 -121 754 -249 1560 -404 2493 -424
2555 -50 154 -153 319 -249 399 -57 48 -140 73 -295 90 -106 12 -162 12 -251
1z"/>
<path d="M9820 4948 c-93 -6 -234 -29 -245 -40 -2 -2 -204 -552 -448 -1223
-245 -671 -556 -1523 -691 -1894 -136 -370 -245 -675 -243 -677 7 -7 240 16
314 32 231 47 395 133 554 293 132 133 227 287 289 467 l20 56 -41 96 c-23 53
-64 157 -91 232 -27 74 -51 137 -53 139 -7 7 -70 -38 -107 -76 -45 -47 -108
-165 -108 -202 0 -21 12 -38 49 -69 62 -52 77 -105 55 -186 -8 -28 -23 -89
-35 -136 -25 -104 -46 -140 -105 -179 -78 -52 -169 -54 -201 -5 -18 28 -15 50
31 197 17 53 21 43 -48 105 -76 70 -54 229 58 417 62 103 148 191 274 280 l79
55 -19 67 c-44 157 -106 459 -96 469 3 2 63 -3 134 -11 71 -9 233 -19 359 -22
l230 -6 122 394 c68 217 137 449 154 517 31 117 50 149 63 105 65 -223 290
-940 296 -947 19 -20 376 62 584 134 154 53 180 66 171 88 -4 9 -79 222 -167
472 -88 250 -175 487 -193 527 -123 266 -334 448 -593 509 -91 22 -225 30
-352 22z"/>
<path d="M20555 4953 c-204 -24 -330 -59 -434 -120 -121 -72 -214 -197 -258
-348 -17 -56 -18 -158 -21 -1452 -3 -1520 -5 -1467 55 -1590 34 -70 127 -167
203 -210 113 -64 275 -103 493 -119 l97 -6 0 1926 0 1926 -52 -1 c-29 -1 -66
-4 -83 -6z"/>
<path d="M21210 3047 c0 -1814 1 -1915 18 -1922 9 -4 85 -10 167 -12 245 -8
374 33 495 156 72 74 109 135 146 243 l24 72 0 1368 0 1368 226 0 c226 0 322
-8 424 -37 191 -54 296 -176 307 -357 15 -245 -119 -424 -363 -486 -65 -17
-111 -20 -282 -20 l-205 0 7 -92 c16 -220 84 -369 200 -443 96 -61 173 -75
421 -75 262 -1 409 33 613 141 l92 49 0 -73 c1 -859 539 -1613 1342 -1881 198
-66 327 -87 563 -93 224 -6 354 6 517 48 42 10 103 19 136 19 45 0 76 7 126
30 36 17 96 43 132 60 36 16 85 49 108 72 24 24 78 65 121 92 107 68 231 173
345 293 618 650 704 1665 205 2413 -35 52 -86 123 -114 158 -28 34 -51 64 -51
67 0 3 528 5 1173 5 1291 0 1227 -3 1350 62 147 79 241 273 254 530 l6 108
-3334 3 c-3119 4 -3340 5 -3429 21 -84 16 -192 18 -917 23 l-823 5 0 -1915z
m4535 1549 c373 -68 674 -225 935 -486 143 -143 230 -265 319 -445 80 -161
121 -278 153 -438 20 -97 23 -141 22 -332 0 -189 -3 -235 -23 -325 -91 -427
-318 -785 -659 -1043 -53 -40 -96 -66 -101 -61 -8 9 -152 321 -164 355 -5 14
10 17 111 23 258 16 352 65 352 187 0 40 -7 56 -44 105 -53 72 -206 221 -511
499 -126 116 -304 279 -395 364 -91 85 -201 185 -245 223 -77 65 -82 68 -133
68 -44 0 -60 -5 -97 -32 -86 -64 -80 4 -80 -928 l0 -825 30 -54 c37 -67 74
-91 138 -91 70 0 108 22 219 127 133 125 132 125 154 61 9 -29 43 -111 75
-182 45 -101 55 -132 45 -138 -22 -12 -193 -37 -306 -44 -185 -11 -427 23
-624 88 -129 42 -335 147 -445 226 -110 78 -259 216 -341 317 -264 323 -406
746 -387 1150 10 195 24 264 69 342 70 120 117 247 148 404 12 63 82 173 194
307 76 92 133 146 246 233 259 200 548 319 870 359 102 12 377 4 475 -14z
m-1760 -406 c-14 -16 -20 -17 -27 -8 -13 22 -9 28 19 28 26 0 26 0 8 -20z
m1958 -1615 c311 -291 565 -531 563 -532 -2 -2 -122 -15 -267 -29 -145 -14
-265 -27 -267 -28 -1 -2 58 -140 133 -306 77 -173 132 -307 127 -312 -14 -14
-193 -89 -201 -84 -4 3 -65 140 -136 305 -71 166 -132 300 -136 299 -4 -2 -76
-66 -161 -144 -84 -77 -172 -157 -195 -178 l-43 -38 0 792 c0 435 4 790 8 788
5 -1 263 -241 575 -533z"/>
<path d="M12500 3035 l0 -1918 103 7 c123 8 262 30 337 52 211 62 355 200 401
384 20 80 21 2794 1 2885 -19 85 -83 213 -137 273 -118 131 -321 208 -602 228
l-103 7 0 -1918z"/>
<path d="M14950 4185 l0 -765 -776 0 -777 0 7 -65 c36 -348 359 -561 971 -639
116 -15 415 -36 523 -36 l52 0 0 -780 0 -780 43 0 c89 0 265 23 356 46 244 62
394 196 446 400 14 54 15 227 13 1465 l-3 1404 -27 80 c-85 249 -294 386 -650
424 -54 6 -115 11 -138 11 l-40 0 0 -765z"/>
<path d="M17400 3413 l0 -1539 63 3 c268 15 464 93 592 236 66 74 136 210 164
321 39 149 43 255 39 1116 -3 809 -4 826 -25 901 -88 311 -318 467 -729 495
l-104 7 0 -1540z"/>
<path d="M7830 4920 c-118 -25 -189 -54 -275 -111 -81 -54 -159 -135 -214
-219 -40 -63 -102 -202 -125 -281 -13 -47 -226 -1402 -316 -2012 l-30 -207 80
-480 c44 -264 80 -482 80 -485 0 -11 69 -4 116 12 60 20 155 112 201 193 80
142 272 827 656 2340 228 899 312 1239 306 1244 -2 2 -39 9 -82 15 -118 16
-298 13 -397 -9z"/>
<path d="M16138 4931 c-1 -3 -2 -858 -3 -1900 l-1 -1894 107 7 c428 26 662
166 730 436 12 45 14 293 14 1420 0 1285 -1 1370 -18 1443 -63 267 -250 420
-574 471 -108 17 -252 26 -255 17z"/>
<path d="M1226 4264 c-370 -58 -645 -162 -777 -293 -104 -105 -142 -212 -143
-401 -1 -95 3 -126 22 -182 62 -178 228 -344 497 -496 50 -28 195 -96 323
-151 414 -178 546 -253 654 -370 77 -83 101 -136 106 -238 4 -78 2 -88 -27
-148 -55 -112 -160 -182 -337 -227 -78 -20 -114 -23 -299 -22 -214 0 -354 13
-584 55 -58 10 -135 19 -172 19 -124 0 -215 -73 -254 -203 -19 -64 -38 -259
-30 -308 6 -33 12 -39 63 -62 274 -123 595 -179 1017 -180 493 0 836 82 1110
266 140 94 279 265 345 424 95 228 104 579 22 818 -116 336 -385 561 -967 809
-534 228 -705 373 -693 591 6 121 70 210 198 280 73 39 67 41 -74 19z"/>
<path d="M27714 2595 c0 -1385 2 -1545 16 -1545 8 0 56 5 105 10 421 48 645
290 717 775 10 68 13 263 13 810 0 653 -2 729 -18 815 -23 122 -63 239 -112
325 -47 84 -161 200 -238 243 -115 64 -304 112 -443 112 l-41 0 1 -1545z"/>
<path d="M11250 3316 c-62 -42 -243 -134 -351 -180 -232 -97 -505 -168 -759
-197 -224 -26 -597 -13 -863 30 -97 16 -107 16 -103 2 3 -9 21 -78 41 -154 19
-75 38 -143 41 -151 3 -9 -17 -27 -58 -52 -96 -58 -252 -179 -295 -228 -21
-24 -63 -92 -93 -150 -53 -104 -54 -108 -55 -192 0 -83 1 -86 30 -110 60 -48
65 -54 65 -88 0 -19 -12 -67 -26 -106 -14 -39 -24 -83 -22 -98 3 -24 8 -27 45
-30 62 -5 96 32 117 123 9 39 23 96 31 127 22 82 9 128 -49 167 -69 48 -73 81
-21 191 68 140 132 204 295 294 l66 36 67 -203 c92 -273 143 -401 242 -602
204 -414 420 -647 690 -740 81 -29 263 -32 362 -7 199 50 256 90 391 270 124
167 220 373 277 597 58 228 70 336 70 648 l0 279 30 -6 c17 -3 63 -22 103 -42
63 -30 81 -46 123 -102 54 -74 84 -149 74 -184 -4 -13 -27 -43 -50 -68 -73
-75 -79 -114 -41 -244 14 -44 27 -93 30 -108 13 -59 98 -75 142 -27 17 19 17
22 -15 117 -38 112 -35 140 14 178 87 66 78 213 -23 361 -22 33 -55 72 -73 87
-38 33 -179 104 -266 136 -70 25 -63 10 -88 190 -25 181 -39 253 -50 257 -6 2
-26 -8 -45 -21z m-255 -732 c32 -16 72 -46 91 -68 34 -39 72 -122 61 -132 -3
-3 -35 4 -71 16 -145 48 -311 61 -453 36 -40 -7 -73 -9 -73 -6 0 13 50 81 78
106 96 87 247 106 367 48z m-964 -140 c99 -29 171 -84 110 -84 -30 0 -166 -47
-248 -86 -42 -20 -119 -65 -171 -101 l-95 -64 6 60 c6 66 40 149 81 198 15 17
54 46 88 62 71 36 141 41 229 15z m913 -816 c-63 -123 -170 -233 -274 -282
-61 -29 -72 -31 -175 -31 -99 1 -118 4 -186 31 -76 31 -202 108 -235 145 -9
10 -15 19 -12 19 3 0 49 -7 104 -15 244 -37 476 4 699 124 50 26 91 47 93 45
2 -1 -4 -17 -14 -36z"/>
<path d="M11500 2288 c0 -125 -68 -417 -142 -607 -45 -118 -162 -362 -233
-488 l-46 -83 425 0 c350 0 426 2 426 13 0 19 -297 857 -309 871 -5 6 -16 38
-25 72 -16 60 -83 255 -92 263 -2 2 -4 -16 -4 -41z"/>
<path d="M17400 1470 l0 -350 1140 0 1140 0 0 48 c0 80 -28 235 -54 306 -63
168 -174 269 -352 322 -54 16 -133 18 -966 21 l-908 4 0 -351z"/>
<path d="M11945 899 c-461 -13 -922 -57 -1449 -139 -105 -16 -267 -36 -361
-45 -93 -9 -332 -36 -530 -60 -865 -105 -1008 -118 -1540 -141 -519 -22 -1119
-15 -1720 20 -242 14 -541 28 -665 31 l-225 4 90 -19 c256 -54 836 -117 1430
-154 538 -35 731 -40 1320 -41 883 0 1058 14 2570 201 72 8 414 58 760 109
1026 153 903 139 1290 139 311 0 366 -2 645 -31 364 -38 542 -50 835 -58 333
-8 343 5 29 38 -1236 133 -1800 166 -2479 146z"/>
<path d="M11240 394 c-237 -20 -413 -46 -600 -89 -58 -13 -150 -31 -205 -39
-55 -9 -215 -36 -355 -61 -316 -56 -437 -71 -710 -86 -242 -13 -423 -8 -772
22 -131 11 -268 19 -305 17 l-68 -3 90 -22 c155 -38 404 -73 730 -103 61 -6
241 -13 400 -17 385 -8 593 8 970 77 88 16 214 39 280 50 66 12 283 57 482
101 505 110 538 112 958 54 141 -19 224 -25 315 -23 l125 3 -280 43 c-154 23
-343 49 -420 57 -135 15 -542 27 -635 19z"/>
</g>
</svg>
